# xmcd
#
# Track frame offsets:
#	150
#	16153
#	28073
#	44638
#	56389
#	73594
#	101120
#	116668
#	134317
#	145682
#	162792
#	175021
#	190927
#	205824
#	234668
#	249745
#	263405
#	280204
#	296554
#	322421
#
# Disc length: 4575 seconds
#
# Revision: 1
# Processed by: cddbd v1.5.2PL0 Copyright (c) Steve Scherf et al.
# Submitted via: audiograbber 1.83.01
#
DISCID=2b11dd14
DTITLE=Tom Astor - Ein Fest für die Sinne
DYEAR=2007
DGENRE=Schlager
TTITLE0=Rocky Mountain Man
TTITLE1=Alter Freund überhol dich nicht selbst
TTITLE2=Mein Eldorado
TTITLE3=Hit Medley
TTITLE4=International Airport - Frankfurt am Main
TTITLE5=Trucker Medley
TTITLE6=Geistertruck
TTITLE7=mit einer starken Frau
TTITLE8=Some Broken Hearts Never Mend
TTITLE9=Wenn ich dich mal brauch
TTITLE10=Freunde
TTITLE11=Irgendwie wird's es schon geh'n
TTITLE12=Der Wind wird sich bald wieder drehen
TTITLE13=Tom Dooley
TTITLE14=Wieder ein Morgen (Morning Has Broken)
TTITLE15=Take it Easy - nimm's leicht
TTITLE16=Take Me Home Country Roads
TTITLE17=Hallo, guten Morgen Deutschland
TTITLE18=Junger Adler
TTITLE19=Auf wiederseh'n Goodbye
EXTD=
EXTT0=
EXTT1=
EXTT2=
EXTT3=
EXTT4=
EXTT5=
EXTT6=
EXTT7=
EXTT8=
EXTT9=
EXTT10=
EXTT11=
EXTT12=
EXTT13=
EXTT14=
EXTT15=
EXTT16=
EXTT17=
EXTT18=
EXTT19=
PLAYORDER=
